
<svg id="Layer_1" xmlns="http://www.w3.org/2000/svg" viewBox="0 0 600 239"><style>.st0,.st1{fill:#04ba5a}.st1{fill-rule:evenodd;clip-rule:evenodd}</style><path class="st0" d="M427.6 201.2h17c3.7 0 6.5.8 8.4 2.5 2 1.8 3 4.1 3 6.9 0 3.6-1.9 6-5.8 7.2v.2c2.3.6 4.1 1.6 5.3 3.1s1.9 3.4 1.9 5.6c0 1.7-.3 3.2-.9 4.5-.6 1.3-1.5 2.4-2.6 3.3-2.2 1.8-5.1 2.6-8.9 2.6h-17.4v-35.9zm15.8 14.4c1.4 0 2.5-.3 3.4-1s1.3-1.7 1.3-3-.4-2.3-1.2-3c-.8-.7-1.9-1-3.4-1h-7.8v8.1h7.7zm.7 15c1.6 0 2.9-.4 3.8-1.3.9-.8 1.3-1.9 1.3-3.3 0-1.6-.5-2.8-1.5-3.5s-2.2-1.2-3.8-1.2h-8.2v9.3h8.4zm17.8-29.4h16c4.2 0 7.4 1.1 9.6 3.3 1.1 1.1 1.9 2.4 2.5 3.8s.9 3 .9 4.8c0 1.7-.3 3.3-.8 4.7s-1.4 2.6-2.4 3.6-2.3 1.8-3.8 2.4-3.1.8-5 .8h-8.6V237h-8.4v-35.8zm8.3 16.9h7c1.7 0 3.1-.4 4-1.4.9-.9 1.4-2.1 1.4-3.7s-.5-2.8-1.4-3.6c-.9-.9-2.2-1.3-3.9-1.3h-7v10zm41.5 19.8c-2.7 0-5.2-.5-7.4-1.4s-4-2.2-5.6-3.9c-1.5-1.7-2.7-3.6-3.5-5.9-.8-2.3-1.2-4.8-1.2-7.4 0-2.7.4-5.2 1.2-7.5.8-2.3 2-4.2 3.5-5.9s3.4-3 5.6-3.9 4.6-1.4 7.4-1.4c2.7 0 5.1.5 7.3 1.4s4 2.2 5.6 3.9c1.5 1.7 2.7 3.6 3.5 5.9s1.2 4.8 1.2 7.5-.4 5.1-1.2 7.4-2 4.3-3.5 5.9c-1.5 1.7-3.4 3-5.6 3.9-2.2 1-4.6 1.4-7.3 1.4zm0-6.7c1.5 0 2.9-.3 4.1-.9 1.2-.6 2.1-1.4 2.9-2.5s1.3-2.3 1.7-3.8c.4-1.4.6-3 .6-4.7 0-1.7-.2-3.3-.6-4.8s-1-2.7-1.7-3.8c-.8-1.1-1.7-1.9-2.9-2.6-1.2-.6-2.5-.9-4-.9s-2.9.3-4.1.9c-1.2.6-2.1 1.5-2.9 2.6-.8 1.1-1.4 2.4-1.8 3.8-.4 1.5-.6 3.1-.6 4.8 0 1.7.2 3.3.6 4.7s1 2.7 1.8 3.8 1.8 1.9 2.9 2.5c1.1.6 2.5.9 4 .9zm-121.9 6.4c-2 0-3.8-.2-5.4-.8s-2.9-1.2-4-2.1c-1.1-.9-2-2-2.5-3.3s-.9-2.7-.9-4.3c0-1.4.2-2.6.6-3.7s1-2 1.7-2.9 1.6-1.6 2.6-2.2c1-.6 2-1.2 3.1-1.8-.9-1-1.6-2.1-2.1-3.3-.5-1.2-.8-2.5-.8-4 0-1.2.2-2.4.7-3.4.5-1 1.1-1.9 2-2.7s1.9-1.3 3.1-1.8c1.2-.4 2.6-.6 4-.6s2.7.2 3.8.6c1.2.4 2.2.9 3.1 1.6s1.5 1.6 2 2.6.7 2.2.7 3.5c0 1.1-.2 2.1-.5 3-.4.9-.8 1.7-1.5 2.4-.6.7-1.3 1.3-2.1 1.9s-1.7 1.1-2.6 1.5l1.4 1.7c.2.3.5.6.8 1l.9 1.2.9 1.2c.3.4.5.8.8 1.1.4-.8.6-1.7.8-2.5s.4-1.7.5-2.7h6.6c-.4 3.7-1.6 7.1-3.7 10.2l6.1 7.7h-9.3l-.7-.9-1.2-1.6c-1.3.9-2.7 1.7-4.2 2.3-1.3.8-3 1.1-4.7 1.1zm.1-6.1c2 0 3.8-.6 5.4-1.6l-6.9-8.9c-1.3.8-2.2 1.8-2.8 2.8-.6 1-.8 2.1-.8 3.3 0 1.4.5 2.4 1.5 3.3.9.7 2.1 1.1 3.6 1.1zm-.8-22.3c0 .9.2 1.8.8 2.5.5.8 1.2 1.5 2 2.3 1.2-.7 2-1.4 2.4-2.2s.7-1.6.7-2.6c0-.9-.3-1.6-.8-2.2-.5-.6-1.2-.9-2.1-.9-.9 0-1.6.3-2.1.8-.7.6-.9 1.3-.9 2.3zM18.6 237.9c-2.6 0-5-.5-7.2-1.4s-4-2.2-5.6-3.9c-1.5-1.7-2.7-3.6-3.6-5.9-.9-2.3-1.3-4.8-1.3-7.4s.4-5.1 1.2-7.4c.8-2.3 2-4.3 3.6-5.9s3.4-3 5.6-3.9 4.6-1.4 7.3-1.4c2 0 3.8.2 5.5.7s3.1 1.2 4.3 2.1c1.6 1.2 2.9 2.6 3.8 4.3.9 1.7 1.5 3.6 1.7 5.6h-8.2c-.3-1.7-1-3.1-2.3-4.2s-2.9-1.7-4.9-1.7c-1.5 0-2.9.3-4 .9-1.1.6-2.1 1.4-2.9 2.5s-1.3 2.3-1.7 3.8c-.4 1.4-.6 3-.6 4.7 0 1.7.2 3.3.6 4.7.4 1.4 1 2.7 1.8 3.7s1.8 1.9 2.9 2.5 2.4.9 3.8.9c2.2 0 4-.6 5.3-1.9 1.3-1.2 2-2.8 2.2-4.7h8.2c-.1 1.8-.6 3.5-1.3 5.1-.8 1.6-1.8 3-3 4.2-1.4 1.4-3 2.4-4.8 3-1.7.7-3.9 1-6.4 1zm32.4 0c-2.1 0-3.9-.4-5.6-1-1.7-.7-3.1-1.6-4.3-2.9-1.2-1.2-2.1-2.7-2.8-4.3s-1-3.4-1-5.4c0-1.9.3-3.7 1-5.4s1.6-3.1 2.8-4.3c1.2-1.2 2.6-2.2 4.3-2.9 1.7-.7 3.5-1 5.6-1 2 0 3.9.4 5.5 1 1.7.7 3.1 1.6 4.3 2.9 1.2 1.2 2.1 2.7 2.7 4.3.6 1.7 1 3.4 1 5.4 0 1.9-.3 3.7-1 5.4s-1.5 3.1-2.7 4.3c-1.2 1.2-2.6 2.2-4.3 2.9-1.7.6-3.5 1-5.5 1zm-.1-5.5c1.9 0 3.3-.8 4.4-2.2 1-1.5 1.5-3.4 1.5-5.9 0-2.4-.5-4.4-1.5-5.9s-2.5-2.3-4.4-2.3c-1.9 0-3.4.8-4.4 2.3-1 1.5-1.5 3.5-1.5 5.9 0 2.4.5 4.4 1.5 5.9 1 1.4 2.5 2.2 4.4 2.2zm24.7-17.1h.1c.8-1.5 1.9-2.7 3.2-3.5 1.3-.8 2.9-1.2 4.7-1.2 2.8 0 5 .9 6.6 2.6 1.6 1.7 2.3 4 2.3 6.9V237H85v-15.4c0-1.4-.4-2.6-1.1-3.4-.7-.9-1.8-1.3-3.2-1.3-1.5 0-2.7.5-3.6 1.6s-1.3 2.4-1.3 4.1v14.5h-7.6v-25.7h7.3l.1 3.9zm19.8-3.9h3.9v-8.2h7.4v8.2h5v4.8h-5v12.7c0 1 .2 1.6.8 1.9.5.3 1.2.5 2.1.5h.9c.3 0 .6 0 .9-.1h.4v5.6c-.4.1-1 .1-1.7.2s-1.6.1-2.7.1c-1.2 0-2.3-.1-3.3-.3-1-.2-1.8-.6-2.5-1.1-.7-.5-1.2-1.2-1.6-2.1s-.6-1.9-.6-3.3v-14.4h-3.9l-.1-4.5zm37.2 25.7c-.2-.3-.4-.7-.5-1.2s-.3-1.2-.3-1.9h-.1c-.8 1.2-1.8 2.1-3 2.8-1.2.7-2.8 1-4.8 1-1.2 0-2.4-.2-3.5-.5s-2-.8-2.8-1.5-1.4-1.4-1.8-2.4c-.4-1-.7-2.1-.7-3.4 0-1.4.3-2.6.8-3.5.5-.9 1.2-1.7 2.2-2.3s2-1 3.2-1.3 2.5-.5 4-.7c2.3-.3 3.9-.7 4.9-1.2 1-.4 1.5-1.2 1.5-2.1 0-.9-.3-1.7-.9-2.2-.6-.6-1.6-.8-2.9-.8-1.4 0-2.5.3-3.3.9-.7.6-1.1 1.4-1.2 2.5h-7c0-1.1.3-2.1.8-3.2.5-1 1.2-1.9 2.1-2.7s2.1-1.4 3.5-1.9 3.1-.7 5-.7c1.6 0 3.1.1 4.2.4s2.2.6 3.1 1.2c1.4.8 2.3 1.8 3 3.1s.9 2.8.9 4.6v13.2c0 2 .3 3.1 1 3.6v.4h-7.4zm-6.3-4.3c1.7 0 3.1-.5 4.1-1.4 1-.9 1.5-2.1 1.5-3.5v-3.3c-.6.4-1.2.6-2 .8l-2.4.6c-1.7.4-2.9.8-3.7 1.3-.8.5-1.2 1.3-1.2 2.5 0 1.1.4 1.9 1.1 2.4.7.4 1.5.6 2.6.6zm30.2 5.1c-2.1 0-3.9-.4-5.6-1-1.7-.7-3.1-1.6-4.2-2.9-1.2-1.2-2.1-2.7-2.7-4.3-.6-1.7-1-3.4-1-5.4 0-1.9.3-3.7.9-5.4s1.5-3.1 2.7-4.3c1.2-1.2 2.6-2.2 4.2-2.9s3.5-1 5.5-1c1.7 0 3.2.2 4.6.7s2.6 1.1 3.6 1.9c1 .8 1.8 1.8 2.5 3 .6 1.2 1.1 2.4 1.3 3.8H161c-.3-1.2-.8-2.1-1.5-2.8-.8-.7-1.8-1-3-1-1.9 0-3.4.7-4.3 2.2-.9 1.4-1.4 3.4-1.4 5.8s.5 4.2 1.4 5.7c.9 1.4 2.4 2.2 4.3 2.2 1.4 0 2.5-.4 3.4-1.2.8-.8 1.3-1.9 1.5-3.4h7.3c-.1 1.4-.4 2.8-1 4.1s-1.4 2.4-2.4 3.3c-1 .9-2.3 1.7-3.7 2.2-1.7.4-3.4.7-5.1.7zm14-26.5h3.9v-8.2h7.4v8.2h5v4.8h-5v12.7c0 1 .2 1.6.8 1.9.5.3 1.2.5 2.1.5h.9c.3 0 .6 0 .9-.1h.4v5.6c-.4.1-1 .1-1.7.2s-1.6.1-2.6.1c-1.2 0-2.3-.1-3.3-.3-1-.2-1.8-.6-2.5-1.1-.7-.5-1.2-1.2-1.6-2.1s-.6-1.9-.6-3.3v-14.4h-3.9v-4.5zm48.5 26.5c-2.6 0-5-.5-7.2-1.4s-4-2.2-5.6-3.9c-1.5-1.7-2.7-3.6-3.6-5.9-.9-2.3-1.3-4.8-1.3-7.4s.4-5.1 1.2-7.4c.8-2.3 2-4.3 3.6-5.9s3.4-3 5.6-3.9 4.6-1.4 7.3-1.4c2 0 3.8.2 5.5.7s3.1 1.2 4.3 2.1c1.6 1.2 2.9 2.6 3.8 4.3.9 1.7 1.5 3.6 1.7 5.6h-8.2c-.3-1.7-1-3.1-2.3-4.2-1.3-1.1-2.9-1.7-4.9-1.7-1.5 0-2.9.3-4 .9-1.1.6-2.1 1.4-2.9 2.5-.8 1.1-1.3 2.3-1.7 3.8-.4 1.4-.6 3-.6 4.7 0 1.7.2 3.3.6 4.7s1 2.7 1.8 3.7 1.8 1.9 2.9 2.5 2.4.9 3.8.9c2.2 0 4-.6 5.3-1.9s2-2.8 2.2-4.7h8.2c-.1 1.8-.6 3.5-1.4 5.1s-1.8 3-3 4.2c-1.4 1.4-3 2.4-4.8 3-1.6.7-3.8 1-6.3 1zm32.4-.1c-2.1 0-4-.4-5.6-1-1.7-.7-3.1-1.6-4.3-2.9s-2.1-2.6-2.7-4.3c-.6-1.6-.9-3.4-.9-5.4 0-1.9.3-3.7 1-5.4s1.5-3.1 2.7-4.3c1.2-1.2 2.5-2.2 4.1-2.9s3.4-1 5.4-1c1.8 0 3.5.3 4.9.9s2.8 1.4 3.9 2.4c1.5 1.4 2.5 3.2 3.2 5.3.7 2.1 1 4.4 1 6.9h-18.7c.3 1.9.9 3.4 1.9 4.5s2.5 1.6 4.3 1.6c1.2 0 2.2-.2 2.9-.6s1.3-1.1 1.8-1.9h7.3c-.3 1.1-.8 2.2-1.5 3.2s-1.5 1.8-2.6 2.6c-1 .7-2.2 1.3-3.6 1.7-1.4.4-2.9.6-4.5.6zM251 216c-1.7 0-3.1.5-4 1.5-.9 1-1.5 2.4-1.7 4.2h11c-.1-1.8-.7-3.2-1.6-4.2-1-1-2.2-1.5-3.7-1.5zm24.1-.7h.1c.8-1.5 1.9-2.7 3.2-3.5 1.3-.8 2.9-1.2 4.7-1.2 2.8 0 5 .9 6.6 2.6s2.3 4 2.3 6.9V237h-7.5v-15.4c0-1.4-.4-2.6-1.1-3.4-.7-.9-1.8-1.3-3.2-1.3-1.5 0-2.7.5-3.6 1.6s-1.4 2.4-1.4 4.1v14.5h-7.6v-25.7h7.3l.2 3.9zm19.8-3.9h3.9v-8.2h7.4v8.2h5v4.8h-5v12.7c0 1 .2 1.6.8 1.9.5.3 1.2.5 2.1.5h.9c.3 0 .6 0 .9-.1h.4v5.6c-.4.1-1 .1-1.7.2s-1.6.1-2.6.1c-1.2 0-2.3-.1-3.3-.3-1-.2-1.8-.6-2.5-1.1-.7-.5-1.2-1.2-1.6-2.1s-.6-1.9-.6-3.3v-14.4h-3.9v-4.5zm32.6 26.4c-2.1 0-4-.4-5.6-1-1.7-.7-3.1-1.6-4.3-2.9-1.2-1.2-2.1-2.6-2.7-4.3s-.9-3.4-.9-5.4c0-1.9.3-3.7 1-5.4.6-1.7 1.5-3.1 2.7-4.3 1.2-1.2 2.5-2.2 4.1-2.9s3.4-1 5.4-1c1.8 0 3.5.3 4.9.9s2.8 1.4 3.9 2.4c1.5 1.4 2.5 3.2 3.2 5.3.7 2.1 1 4.4 1 6.9h-18.7c.3 1.9.9 3.4 1.9 4.5s2.5 1.6 4.3 1.6c1.2 0 2.2-.2 2.9-.6s1.3-1.1 1.8-1.9h7.3c-.3 1.1-.8 2.2-1.5 3.2s-1.5 1.8-2.6 2.6c-1 .7-2.2 1.3-3.5 1.7-1.4.4-2.9.6-4.6.6zm-.4-21.8c-1.7 0-3.1.5-4 1.5s-1.5 2.4-1.7 4.2h11c-.1-1.8-.7-3.2-1.6-4.2-.9-1-2.2-1.5-3.7-1.5zm24.1 0h.1c.8-1.8 1.8-3.1 3-3.9s2.5-1.2 4.1-1.2c.8 0 1.3.1 1.6.2v6.6h-.2c-.5-.1-1.1-.1-1.6-.1-2.1 0-3.7.6-5 1.9-1.2 1.3-1.9 3.2-1.9 5.7v11.9h-7.6v-25.7h7.3l.2 4.6z"/><path class="st1" d="M149 1.5l-34.2 111.7L78.9 1.3H2.4v176h59.3l-.3-103.4 30.9 103.4h44.9l30.7-101.8v101.8l57.1.3.5-176.3zm186.7-.4h-94.1v176.5h83.5c61.2 0 89.8-35.1 89.8-89 0-44.3-20.6-87.5-79.2-87.5zM301 47.2h16.7c39.1 0 42.5 30.7 42.5 41.8 0 16.4-4.9 43.7-38.5 43.8h-20.8l.1-85.6z"/><path class="st1" d="M599 1.1h-68.5l-12.2 21.8-20.2 36.3L477 22.9 464.3 1.1h-70.2l26.3 41.4 43.9 68.9v66.2h63V112z"/></svg>